# xmcd CD database file
#
# Track frame offsets:
#	150
#	20657
#	41147
#	62572
#	83197
#	101272
#	123847
#	143422
#	162847
#	184320
#	205782
#	227770
#
# Disc length: 3312 seconds
#
# Revision: 5
# Processed by: cddbd v1.5.2PL0 Copyright (c) Steve Scherf et al.
# Submitted via: CDex 1.70beta2
#
DISCID=970cee0c
DTITLE=?禱?? - ?聶?繚
DYEAR=1991
DGENRE=Pop
TTITLE0=糧??竅
TTITLE1=簡罈????繕????獺?瓊??繒羸?繒
TTITLE2=?繒?繒?繒?繒
TTITLE3=繙簧?礙
TTITLE4=罈??織
TTITLE5=?繕翹繚
TTITLE6=?聶?繚
TTITLE7=糧職
TTITLE8=罈簸簡簽?穫??
TTITLE9=?禱?簾
TTITLE10=?羹??
TTITLE11=簡罈????繕????獺?瓊??繒羸?繒 (Instrumental)
EXTD=YEAR: 1991
EXTT0=
EXTT1=
EXTT2=
EXTT3=
EXTT4=
EXTT5=
EXTT6=
EXTT7=
EXTT8=
EXTT9=
EXTT10=
EXTT11=
PLAYORDER=
